<svg xmlns="http://www.w3.org/2000/svg" width="561" height="255" fill-rule="evenodd" fill="#fff"><path d="M56.63 197.35L9.56 85.307c-2.896-6.443-4.344-11.125-4.344-14.04a15.76 15.76 0 0 1 2.521-8.609c1.68-2.65 3.993-4.768 6.934-6.356s6-2.384 9.175-2.384c5.5 0 9.667 1.655 12.47 4.967s5.275 8.058 7.424 14.237l32.36 89 30.68-82.774c2.427-6.7 4.622-11.963 6.585-15.76s4.038-6.357 6.233-7.682 5.3-1.987 9.316-1.987c2.894 0 5.674.73 8.336 2.185s4.714 3.423 6.163 5.894 2.172 5.078 2.172 7.814c-.374 1.678-.98 4.062-1.82 7.15a100.32 100.32 0 0 1-3.082 9.403L90.8 209.8c-4.298 10.86-8.5 19.38-12.6 25.56s-9.55 10.927-16.32 14.238-15.9 4.966-27.387 4.966c-11.207 0-19.613-1.148-25.217-3.442S.872 244.63.872 238.537c0-4.15 1.33-7.35 3.992-9.6s6.606-3.376 11.838-3.376a22.99 22.99 0 0 1 6.024.794c2.428.528 4.53.794 6.305.794 4.4 0 7.845-.618 10.367-1.854s4.785-3.377 6.794-6.422 4.32-7.53 6.936-13.443l3.503-8.078zm327.933-12.98l-31.918-52.446-19.6 18.54v28.74c0 6.977-1.832 12.34-5.497 16.092s-7.88 5.628-12.647 5.628c-5.562 0-9.933-1.853-13.112-5.562s-4.768-9.18-4.768-16.423V24.78c0-8.033 1.545-14.148 4.637-18.342s7.502-6.3 13.242-6.3c5.562 0 9.978 1.9 13.243 5.695s4.9 9.403 4.9 16.82v87.674L373.7 67.692c5.032-5.298 8.875-8.917 11.523-10.86s5.87-2.915 9.667-2.915c4.503 0 8.256 1.436 11.258 4.304s4.502 6.47 4.502 10.794c0 5.298-4.9 12.362-14.7 21.2l-19.204 17.615 37.083 58.272c2.736 4.327 4.7 7.617 5.893 9.868s1.788 4.392 1.788 6.422c0 5.74-1.568 10.265-4.7 13.575s-7.264 4.966-12.384 4.966c-4.416 0-7.814-1.2-10.198-3.575s-5.608-6.708-9.667-12.98zm138.927 0l-31.918-52.447-19.6 18.54v28.74c0 6.977-1.832 12.34-5.497 16.092s-7.88 5.628-12.647 5.628c-5.56 0-9.933-1.853-13.1-5.562s-4.77-9.18-4.77-16.423V24.78c0-8.033 1.545-14.148 4.637-18.342s7.504-6.3 13.243-6.3c5.562 0 9.978 1.9 13.243 5.695s4.9 9.403 4.9 16.82v87.674l40.658-42.645c5.032-5.298 8.875-8.917 11.523-10.86s5.87-2.915 9.667-2.915c4.503 0 8.256 1.436 11.258 4.304s4.502 6.47 4.502 10.794c0 5.298-4.9 12.362-14.7 21.2l-19.204 17.615 37.083 58.272c2.736 4.327 4.7 7.617 5.893 9.868s1.788 4.392 1.788 6.422c0 5.74-1.568 10.265-4.7 13.575s-7.264 4.966-12.384 4.966c-4.416 0-7.814-1.2-10.198-3.575s-5.607-6.708-9.667-12.98zm-247.513-30.937c-2.433 9.252-8.075 40.577 21.38 56.827 0 0-33.386 0-49.342-20.93-10.116 6.314-22.067 9.962-34.87 9.962-36.42 0-65.946-29.525-65.946-65.946S176.724 67.4 213.145 67.4s65.946 29.525 65.946 65.946c0 7.004-1.092 13.752-3.115 20.085zM202.68 164.52a31.45 31.45 0 0 0 8.962 1.296c17.357 0 31.427-14.07 31.427-31.427s-14.07-31.43-31.427-31.43-31.427 14.07-31.427 31.427c0 7.856 2.882 15.038 7.647 20.548-2.783 6.782-7.9 13.378-16.862 18.322 0 0 17.633 0 31.68-8.74z"/></svg>